<?xml version="1.0" standalone="no"?>
<!DOCTYPE svg PUBLIC "-//W3C//DTD SVG 20010904//EN"
 "http://www.w3.org/TR/2001/REC-SVG-20010904/DTD/svg10.dtd">
<svg version="1.0" xmlns="http://www.w3.org/2000/svg"
 width="1300.000000pt" height="1300.000000pt" viewBox="0 0 1300.000000 1300.000000"
 preserveAspectRatio="xMidYMid meet">
<metadata>
Created by potrace 1.11, written by Peter Selinger 2001-2013
</metadata>
<g transform="translate(0.000000,1300.000000) scale(0.100000,-0.100000)"
fill="#000000" stroke="none">
<path d="M3113 10762 c-19 -2 -40 -13 -50 -26 -17 -21 -18 -210 -18 -4103 l0
-4081 22 -24 22 -23 1608 1 c884 0 1655 4 1713 8 205 13 300 22 540 52 93 12
319 56 431 84 973 245 1697 884 2118 1868 178 415 300 918 351 1437 6 61 13
124 15 140 24 183 25 930 0 1145 -2 19 -6 62 -10 95 -3 33 -8 80 -11 105 -3
25 -7 59 -9 75 -16 135 -28 208 -71 420 -71 354 -198 736 -350 1051 -458 952
-1221 1525 -2259 1699 -110 18 -329 42 -465 50 -58 4 -116 8 -130 11 -70 11
-732 17 -2005 18 -775 0 -1425 0 -1442 -2z m3327 -1065 c25 -3 77 -9 115 -12
344 -28 607 -87 817 -182 97 -44 258 -134 308 -173 19 -15 42 -31 51 -36 65
-36 283 -251 373 -368 162 -212 296 -477 389 -773 72 -228 147 -612 162 -834
4 -46 8 -90 11 -98 8 -25 18 -342 18 -556 -1 -193 -9 -422 -19 -520 -2 -22 -7
-67 -10 -100 -80 -835 -336 -1483 -753 -1908 -155 -158 -329 -268 -582 -367
-115 -45 -331 -105 -465 -129 -33 -6 -71 -13 -84 -16 -14 -2 -61 -9 -105 -15
-45 -6 -94 -12 -111 -15 -16 -2 -61 -6 -100 -10 -38 -3 -90 -8 -115 -11 -25
-3 -512 -7 -1082 -9 l-1038 -4 0 57 c0 163 0 4956 0 5480 l0 613 1088 -4 c598
-3 1107 -7 1132 -10z"/>
</g>
</svg>
